<?xml version="1.0" encoding="utf-8"?>
<!-- Generator: Adobe Illustrator 26.0.1, SVG Export Plug-In . SVG Version: 6.00 Build 0)  -->
<svg version="1.1" id="Layer_1" xmlns="http://www.w3.org/2000/svg" xmlns:xlink="http://www.w3.org/1999/xlink" x="0px" y="0px"
	 viewBox="0 0 131.8 52.2" style="enable-background:new 0 0 131.8 52.2;" xml:space="preserve">
<style type="text/css">
	.st0{fill:#FFFFFF;}
	.st1{clip-path:url(#SVGID_00000069374321057614494670000012245659726744150444_);}
	.st2{fill:none;stroke:#F1EA24;stroke-width:7.2237;stroke-linecap:round;stroke-linejoin:round;stroke-miterlimit:10;}
	.st3{fill:#F1EA24;}
	.st4{fill:none;stroke:#010101;stroke-width:3.8897;stroke-miterlimit:10;}
	.st5{stroke:#000000;stroke-width:0.5272;stroke-miterlimit:10;}
</style>
<polygon class="st0" points="111.7,31 112.5,32.4 113.9,31 113.9,29.2 "/>
<g>
	<g>
		<path d="M11.1,47.4l3.6-3.6c0,0,0.1-0.1,0.2-0.1c0.2,0,0.3,0.1,0.3,0.3c0,0.1-0.1,0.2-0.1,0.2l-3,2.9c1.3,0.9,3,3.5,3.8,3.5
			c0.2,0,0.3,0,0.3,0c0.2,0,0.2,0.1,0.2,0.3c0,0.2-0.2,0.4-0.6,0.4c-1.1,0-3-3-4.2-3.6l-0.6,0.6v2.8c0,0.1-0.1,0.2-0.3,0.2
			c-0.2,0-0.3-0.1-0.3-0.2v-7.2c0-0.1,0.1-0.2,0.3-0.2c0.3,0,0.3,0.1,0.3,0.2L11.1,47.4L11.1,47.4z"/>
		<path d="M18.5,51.1c0,0.1-0.1,0.2-0.3,0.2c-0.2,0-0.3-0.1-0.3-0.2v-7.2c0-0.1,0.1-0.2,0.3-0.2c0.3,0,0.3,0.1,0.3,0.2V51.1z"/>
		<path d="M23.1,44.3v6.8c0,0.1-0.1,0.2-0.3,0.2c-0.3,0-0.3-0.1-0.3-0.2v-6.8h-2.3c0,0-0.2,0-0.2-0.3c0-0.2,0.2-0.3,0.2-0.3h5.2
			c0,0,0.2,0,0.2,0.3c0,0.3-0.2,0.3-0.2,0.3H23.1z"/>
		<path d="M30,44.2c-1.6,0-3,0.9-3,3.4c0,2.2,1.5,3.2,3.1,3.2c1.2,0,1.9-0.5,2.3-1c0.1-0.1,0.1-0.1,0.2-0.1c0.1,0,0.2,0.1,0.2,0.3
			c0,0.2-0.1,0.2-0.1,0.3c-0.5,0.5-1.5,1.1-2.7,1.1c-2,0-3.8-1.3-3.8-3.8c0-2.8,1.8-4,3.7-4c1.6,0,2.6,0.9,2.6,2
			c0,0.5-0.2,0.8-0.5,0.8c-0.1,0-0.3,0-0.3-0.2c0-0.1,0.1-0.2,0.1-0.5C31.9,44.8,31.2,44.2,30,44.2z"/>
		<path d="M34.8,43.9c0-0.1,0.1-0.2,0.3-0.2c0.3,0,0.3,0.1,0.3,0.2v4h4.9v-4c0-0.1,0.1-0.2,0.3-0.2c0.3,0,0.3,0.1,0.3,0.2v7.2
			c0,0.1-0.1,0.2-0.3,0.2c-0.2,0-0.3-0.1-0.3-0.2v-2.6h-4.9v2.6c0,0.1-0.1,0.2-0.3,0.2c-0.2,0-0.3-0.1-0.3-0.2V43.9z"/>
		<path d="M48.1,50.7c0,0,0.2,0.1,0.2,0.3c0,0.3-0.2,0.3-0.2,0.3h-4.7c-0.1,0-0.2-0.1-0.2-0.2v-7.2c0-0.1,0.1-0.2,0.2-0.2h4.4
			c0,0,0.2,0,0.2,0.3c0,0.3-0.2,0.3-0.2,0.3h-3.9V48h3.3c0,0,0.2,0.1,0.2,0.3s-0.2,0.3-0.2,0.3h-3.3v2L48.1,50.7L48.1,50.7z"/>
		<path d="M50.6,43.9l5,6.2v-6.2c0-0.1,0.1-0.2,0.3-0.2c0.2,0,0.3,0.1,0.3,0.2v7.2c0,0.1-0.1,0.2-0.2,0.2c-0.2,0-0.2-0.1-0.3-0.2
			l-5.1-6.3v6.2c0,0.1-0.1,0.2-0.3,0.2S50,51.2,50,51.1v-7.2c0-0.1,0.1-0.2,0.3-0.2C50.4,43.7,50.6,43.8,50.6,43.9z"/>
		<path d="M59.9,48c0,0-0.3,0-0.3-0.3c0-0.3,0.3-0.3,0.3-0.3h1.7v-1.4c0,0,0-0.3,0.4-0.3s0.4,0.3,0.4,0.3v1.4H64c0,0,0.3,0,0.3,0.3
			c0,0.3-0.3,0.3-0.3,0.3h-1.7v1.7c0,0,0,0.3-0.4,0.3s-0.4-0.3-0.4-0.3V48H59.9z"/>
		<path d="M71.3,47.3c0.8,0.1,1.5,0.8,1.5,1.7c0,1.3-0.8,2.2-2.5,2.2h-3c-0.1,0-0.2-0.1-0.2-0.2v-7.2c0-0.1,0.1-0.2,0.2-0.2h2.2
			c1.8,0,2.8,0.5,2.8,1.9C72.4,46.6,72,47,71.3,47.3z M67.8,47.2h2.3c1.2,0,1.5-0.7,1.5-1.6c0-1-0.7-1.3-2.1-1.3h-1.7
			C67.8,44.3,67.8,47.2,67.8,47.2z M70.4,47.8h-2.6v2.9h2.4c1.5,0,2-0.6,2-1.6C72.2,48.3,71.6,47.8,70.4,47.8z"/>
		<path d="M75.3,49.6L74.7,51c-0.1,0.2-0.2,0.3-0.4,0.3c-0.2,0-0.3-0.1-0.3-0.2c0-0.1,0-0.2,0-0.2l3.3-7c0.1-0.1,0.1-0.3,0.3-0.3
			s0.2,0.1,0.3,0.3l3.3,7c0,0,0,0.1,0,0.2s-0.1,0.2-0.3,0.2c-0.2,0-0.3-0.1-0.4-0.2l-0.7-1.5H75.3z M75.6,48.9h4l-2-4.3L75.6,48.9z"
			/>
		<path d="M88.4,50.7c0.1,0,0.1,0.2,0.1,0.2c0,0.3-0.4,0.4-0.7,0.4c-1.2,0-1.6-1.9-3.1-2.5c-0.3,0-0.5,0-0.8,0
			c-0.3,0-0.3-0.2-0.3-0.3c0-0.2,0.1-0.3,0.2-0.3c1.7,0,3.3-0.7,3.3-2.2c0-1.4-1.1-1.7-2.6-1.7h-1.1v6.8c0,0.1-0.1,0.2-0.3,0.2
			c-0.2,0-0.3-0.1-0.3-0.2v-7.2c0-0.1,0.1-0.2,0.2-0.2h1.6c1.8,0,3.3,0.5,3.3,2.3c0,1.3-1,2.2-2.2,2.6c1.1,0.7,1.5,2.1,2.5,2.1
			C88.3,50.7,88.3,50.7,88.4,50.7z"/>
	</g>
</g>
<g>
	<g>
		<defs>
			<path id="SVGID_1_" d="M129,28.3c0,0-0.7,0.6-1,0.5c-0.4-0.1-0.6-0.1-1.1-0.2L8.5,28.8c0,0-0.6,0.1-1,0.1c-0.4,0-1,0.2-1.4,0.3
				l-8.9,3l2.3,11.4l85.7,2.7l8.6,10.3l16.2-3.8l15.9-6.6l7.5-11.9L129,28.3z"/>
		</defs>
		<clipPath id="SVGID_00000067195618818461279730000001148806931060380093_">
			<use xlink:href="#SVGID_1_"  style="overflow:visible;"/>
		</clipPath>
		<g style="clip-path:url(#SVGID_00000067195618818461279730000001148806931060380093_);">
			<g>
				<path class="st2" d="M16.6,3.2c0,0-0.5-0.2-0.8-0.3c-4.1-1.4-6.7-0.1-8,0.8C7.6,3.7,7.5,3.7,7.4,3.8c-1.8,1.2-3.3,3-4.1,5
					s-1,4.3-0.2,6.4c0.5,1.4,1.6,2.7,3.1,3.1c0.9,0.2,2-0.1,2.2-1c0.2-0.8-0.6-1.5-1.1-2.2c-0.9-1.2-1.2-2.8-0.9-4.2s0.8-2.8,1.8-4
					c0.9-1.1,2.1-2,3.5-2.3c0,0,0.1,0,0.2,0c0.3,0,0.8-0.1,1.5,0c2.3,0.4,3.8,2.7,4.5,5.5c0,0.2,0,0.4,0.1,0.5
					c0.2,1.5,0.3,3.2,0.2,4.4c-0.1,1.7-0.3,2.7-0.6,3.9c-0.1,0.4-0.2,0.7-0.3,1c-0.2,0.4-0.4,0.8-0.7,1.1c-0.1,0.1-0.2,0.2-0.4,0.4
					c-0.5,0.4-1.4,0.5-2,0.6c0-4.1-0.5-8.4-0.2-11.5c0-0.5,0.6-1.7,0.4-2.3c0,0,0-0.1,0-0.1c-0.1-0.4-0.3-0.8-0.7-1
					c-1-0.7-2.4-0.5-3.1,0.4c-0.1,0.1-0.2,0.3-0.2,0.4C10,8.3,9.9,8.8,9.9,9.2c-0.2,4.2-0.2,8.3,0,12.5c0.1,1.9,0.1,3.7,0.1,5.6
					c0,1.2,0,2.3,0,3.4c0,1-0.1,2.3-0.7,3.2c0-0.1-0.1-0.2-0.2-0.2c-0.4-0.4-1-0.8-1.6-0.9c-1.1-0.2-2.3,0.5-2.4,1.8
					c-0.1,3,4.3,3.1,6.3,3.2c1.3,0,2.6,0,3.9-0.3c1.5-0.3,3.2-1.1,4.2-2.3c1.1-1.2,1.7-2.8,2.1-4.4c0.3-1.5,0.3-3.2-0.1-4.8
					c-0.4-1.5-1.3-2.9-2.7-3.7C24.6,16.2,22.2,5.7,16.6,3.2z M15.8,35.2c-1.2,0.9-2.6,0.9-4,0.5c-0.1,0-0.8-0.4-1-0.5c0,0,0,0,0,0
					c2.2-1.6,2.9-6.3,3.2-11.6c0,0,1.6-0.3,2.4-0.1c1.5,0.4,1.9,2.3,1.9,3.8C18.3,30,18.1,33.5,15.8,35.2z"/>
				<path class="st2" d="M127.7,33.1c-0.1-0.6-0.7-1-1.3-0.9c-0.5,0.1-0.9,0.5-0.9,0.9c-0.1,0.5,0.2,0.9,0.6,1.2l0,0l0,0
					c0,0-0.3,0.7-0.6,0.9c-1.5,1.2-2.4-0.3-1.4-4.8c0.8-3.6,2.2-10.5,2.4-11.5c0,0,0-0.1,0-0.1s0-0.1,0-0.1c0-0.4-0.3-0.7-0.6-0.7
					c-0.2,0-0.4,0.1-0.4,0.2c0,0,0,0,0,0c-0.6,0.3-1.4,0.4-2.2,0.4c0,0,0,0,0,0c-0.4,0-0.7,0-1.1-0.1c-0.2-0.1-0.5-0.2-0.4-0.4
					c0.1-0.4,0-0.6,0-1.1c-0.1-0.5-0.2-1-0.7-1.3c0,0,0,0,0,0c-0.3-0.3-0.8-0.5-1.3-0.5c-1,0-1.7,1-1.7,1.9c0.1,1.1,0.6,2.1,1.4,2.6
					c0.1,0.1,0.1,0.1,0.1,0.1c-0.4,2.5-1.2,4.4-2.1,6.7l0,0c-1.2,2.4-2.8,7.1-5.6,7.1c-1,0-1.7-2.5-1.8-3.7
					c3.5-1.9,6.6-6.4,6.9-10.5c0.3-2-0.8-4.4-2.9-4.6c-4.3-0.3-6.4,7.3-7.2,10.8c-0.1,0.3-0.1,0.7-0.2,1c-1,2.1-2.1,3.6-3.7,5.4
					c1.2-5.6,3-13.5,3.1-15c0.1-1.5-1.3-2.3-2.4-1c0.1-1.4-1.1-1.5-1.6-1.5c-4.4-0.4-6.5,7.7-7.3,10.8c-0.2,1-0.3,1.8-0.3,3.7h0
					c-0.4,1.9-2.2,4.1-3.1,4.5c-0.1,0-0.1,0-0.1,0.1c-1.3,0.3-0.1-3,0-3.6c0.5-1.7,1-3.3,1.5-5c0.5-1.6,0.9-3.8,1.4-5.4
					c0.1-0.5,0.3-1.6,0.3-1.6c0-0.7-0.6-1.3-1.3-1.3c-0.3,0-0.6,0.1-0.8,0.3c0,0-2.9,1.5-3.2-0.3l0,0c0-0.1,0.1-0.3,0.1-0.5
					c0-0.5-0.2-1-0.6-1.3l0,0c-0.3-0.3-0.7-0.4-1.1-0.5c-1,0-1.8,0.9-1.8,1.9c0,0.5,0.2,1,0.4,1.4c0.1,0.1,0.1,0.3,0.2,0.5
					c0.1,0.2,0.2,0.4,0.4,0.6c0.1,0.1,0.2,0.2,0.2,0.3c0,0,0,0.1,0,0.1c-0.4,2-1.1,4.6-1.9,6.5c-0.5,1.3-0.9,2.6-1.5,3.8
					c-0.3,0.7-0.8,1.9-1.2,2.5c-0.1,0.1-0.3,0.4-0.6,0.7c-0.1,0.4-0.5,0.6-0.9,0.6c-0.3-0.1-0.6-0.3-0.7-0.6c-0.1-0.2,0-0.4,0.1-0.5
					c0,0,0-0.1,0-0.2c0.3-1.3,0.8-3.1,1.1-4.4c0.4-1.9,0.9-3.8,1.3-5.6c0.4-1.8,1.1-4.2,1.3-6.1c0.2-1.9-3.7-1.9-3.8,0.2
					c-0.1,2.5-1.6,8.1-2.8,14.4c-0.1,0.2-0.1,0.5-0.2,0.7c0,0.2-0.1,0.4-0.1,0.7c-0.1,0.2-0.1,0.4-0.2,0.6c-0.1,0.2-0.1,0.3-0.2,0.4
					c-0.3,0.4-0.7,0.7-1.3,0.7c-0.9,0-1.6-0.7-1.7-1.5c0,0,0-0.1,0-0.1c0,0,0,0,0,0c0,0,0,0,0,0c0-0.1,0-0.2,0-0.2c0,0,0,0,0-0.1
					c0,0,0,0,0-0.1c1-5.2,2.2-12.3,2.8-15s-3.9-2.5-3.9-0.2c0,2.4-0.2,4.2-0.8,7c0,0.1-0.1,0.3-0.1,0.5c-0.1,0.4-0.2,0.9-0.3,1.4
					c-0.2,0.6-0.4,1.3-0.6,1.9c-0.7,1.4-1.8,3-3.2,3.7c0,0,0-0.1,0.1-0.1c0.2-0.3,0.4-0.8,0.7-1.6c0.8-2.4,1.4-6.2,0.8-9.9
					c0,0,0-0.1,0-0.1c-0.2-0.9-0.7-1.8-1.4-2.4c-0.5-0.4-1.1-0.7-1.7-0.6c-0.7,0.1-1.8,1-2.4,1.6c0.8-4.1,2.2-9.1,2.3-11.6
					c0.2-2.8-3.8-2.3-3.8,0.1c0.2,7.9-2.5,13.7-3.4,19.6c0,0.2-0.1,0.4-0.1,0.5c-1,2.4-3.3,7-6.5,7c-1,0-1.5-1.1-1.6-2.6
					c4-2.7,6.6-6.6,7.2-11.2c0.2-2-1-4.6-3.6-5c-4.6-0.6-6.2,6.6-6.8,10.1C46.7,26,46.6,29,46.5,30c-0.3,0.9-0.9,1.7-1.4,2.3
					c0,0-2.8,2.3-2.1-1.8l0,0c0.8-4.7,2.2-10.7,2.1-12.6v0c0-0.1,0-0.1,0-0.2c0-0.1,0-0.2-0.1-0.2c-0.1-0.2-0.2-0.3-0.3-0.3
					c-0.2-0.2-0.5-0.3-0.8-0.3c-0.4,0-0.7,0.2-0.9,0.5c-0.1,0-0.2,0.1-0.4,0.1c0,0-2.1,0.6-2.5-1.1c0,0,0-0.2,0-0.2
					c-0.1-0.3-0.3-0.6-0.5-0.9c-0.2-0.2-0.4-0.3-0.7-0.4c-0.3-0.1-0.7-0.1-1.1,0c-0.8,0.2-1.3,0.8-1.4,1.6c-0.1,0.5,0.1,1,0.4,1.4
					c0.2,0.4,0.6,0.5,1,0.8c0.3,0.3,0.4,0.7,0.3,1.2c-0.3,2.4-0.6,3.4-1.4,6l0,0c0,0,0,0,0,0c-0.6,1.8-2.4,5.8-2.4,5.8
					c-1.6,1.9-1.9,0.1-1.9-0.6c1.5-11.1,2.9-13.3,2.3-15.2c-0.5-1.6-2.5-1.3-3.4,0.1c0-0.3-0.2-0.5-0.5-0.7
					c-0.6-0.5-1.4-0.6-2.2-0.4c-3.8,1.1-4.8,6.8-5.3,9.8C23,27.3,21.8,37.5,26,37.6c1.1,0,2.6-0.8,3.3-2.2c0.3,1.5,1.5,2.4,2.5,2.2
					c4.2-0.8,5-7.2,6.1-10.3l0,0c0.9-3.1,1.6-6.1,1.7-6.7c0,0,0,0,0,0c0,0,0,0,0,0c0,0,0,0,0,0c0.1-0.4,0.5-0.7,0.9-0.7
					c0.5,0,1,0.4,1,1c0,0.1,0,0.2-0.1,0.3c-0.3,1.2-1.8,7.8-1.9,12.4c-0.1,1.6,0.7,4,2.6,4.1c2.3,0.1,3.9-1.8,4.7-4
					c0.4,2.3,1.6,4.2,4,4.1c3.2-0.1,5.7-3,7.1-5.8c0.1,2.6,0.8,5.9,3.8,5.8c1.9-0.1,3.1-1.8,4-3.2c1.6,0,3.3-1.1,4.2-2.4
					c0,0.4-0.1,0.8-0.1,1.2c-0.1,1.4,1.3,4.2,3.3,4.3c1.2,0.1,3-1,4.1-2.3v0c0,0.1,0,0.1,0,0.2c0,1.1,0.9,2,2,2.1c0.1,0,0.1,0,0.2,0
					h0c0,0,0,0,0,0c0.1,0,0.2,0,0.3,0c2.5-0.3,3.5-3,4.4-5.1c1-2.3,1.7-4.7,2.7-7c0.5-1.3,1.1-3.2,1.6-4.6c0.1-0.2,0.1-0.5,0.3-0.6
					c0.2-0.2,0.6-0.3,0.9-0.3c0.4,0.1,0.6,0.4,0.7,0.7c0,0.2,0,0.3,0,0.5c-0.1,0.4-0.2,1-0.3,1.3c-0.2,0.5-0.3,1-0.5,1.4
					c-0.5,1.5-1,2.9-1.4,4.4c-0.5,1.6-0.9,3.2-1.1,4.8c-0.2,1.2-0.3,2.4,0.5,3.5c0.8,1.1,2.5,1.2,3.6,0.6c1.2-0.7,2.4-3,3.2-4.2
					c0.2-0.3,0.4-0.7,0.6-1c0.4,1.5,0.9,2.9,2.3,3c0.7,0,1.6-0.7,2.1-1.3c-0.1,0.6-0.4,2.1-0.4,2.1c-2.8,2.4-5.2,3.6-5.4,7.4
					c-0.1,2,0.9,2.9,2.1,2.8c4.6-0.2,6-7.3,6.8-10.6c1.7-1.5,2.9-2.9,4.1-4.9c0.2,2.5,1.4,6.5,4.2,6.5c4.2,0,6.3-5.6,7.8-9.1h0
					c1-2.5,2.4-7,2.5-7.5c0.1-0.7,1.7-0.6,1.5,0.2c0,0.1,0,0.2-0.1,0.4l0,0.1c-1.6,5.7-2.2,9.3-2.3,11.7c0,0.2,0,0.4,0,0.5
					c0,2.4,0.6,3.3,1.4,3.7c0.3,0.2,0.8,0.3,1.2,0.4c0.7,0.1,1.5-0.1,2.1-0.4c0.2-0.1,0.4-0.2,0.6-0.3c1-0.7,2-1.8,2.4-2.8
					C127.8,33.9,127.8,33.5,127.7,33.1L127.7,33.1z M110.7,22.7c0.5-1.5,1.1-3,1.6-3.8c0-0.1,0.1-0.2,0.2-0.3
					c0.4-0.5,1.1-0.6,1.6-0.2c0.3,0.2,0.4,0.5,0.4,0.8c0,1.3-1,5.8-4.5,8.9C110.2,26.2,110.3,24.4,110.7,22.7z M30.4,18.7
					c0,0.1,0,0.2,0,0.3c-0.1,0.8-0.3,1.7-0.4,2.5c-0.2,1.3-0.1,1-0.3,2.3c-0.4,2.5-0.8,5.4-1,7.9c-0.1,0.5-0.5,1.6-1.3,1.5l0,0
					c-1.1,0-1.4-2.6-1.1-5.6c0-0.4,0.1-0.8,0.1-1.2c0.4-2.9,1.2-5.9,2.1-7.4c0.2-0.2,0.4-0.4,0.6-0.5c0.2-0.1,0.4-0.3,0.7-0.3
					c0,0,0,0,0.1,0C30.3,18.2,30.5,18.4,30.4,18.7z M50,27.8C50,27.8,50,27.8,50,27.8C50,27.7,50,27.7,50,27.8
					C50,27.7,50,27.8,50,27.8z M53.7,17.8C53.7,17.8,53.7,17.9,53.7,17.8c0.2,0.1,0.5,0.6,0.5,1.2c-0.1,3.1-2,6-4,8.5
					C49.8,26,50.7,18.4,53.7,17.8z M61.9,34.2c-0.9-0.3-0.8-2.8-0.7-4.2c0.1,1.4,1.1,2.8,1.7,3.2C62.7,33.6,62.1,34.3,61.9,34.2z
					 M65.2,22c-0.1,3-0.2,5.4-1.2,8.3c-1.3-1.2-1.8-3-1.7-4.7c0-0.6,0.1-1.1,0.2-1.7c0.3-1.6,0.8-4,2.2-4.2
					C65,19.6,65.2,20.6,65.2,22z M95.8,43.5c-0.5,0.1-0.5-0.4-0.5-0.7c0.2-1.8,1.4-3.4,2.9-4.7C97.7,39.9,97.4,42.4,95.8,43.5z
					 M99.9,29.4c-0.2,0.8-0.5,1.4-1,1.4c0,0-0.1,0-0.1,0c-1.7-0.3-0.7-5.2-0.3-6.7c0-0.1,0-0.1,0-0.2c0.1-0.2,0.1-0.5,0.1-0.7
					c0.1-0.3,0.1-0.5,0.2-0.8c0.1-0.3,0.1-0.6,0.2-0.9c0.1-0.3,0.2-0.6,0.3-0.9c0.1-0.3,0.4-1,0.5-1.3c0.1-0.3,0.3-0.5,0.4-0.8
					c0.2-0.4,0.5-0.7,0.9-0.9c0.1,0,0.1-0.1,0.2-0.1c0.2-0.1,0.6-0.3,0.9-0.1c0.1,0,0.1,0.1,0.1,0.2
					C102.3,17.8,100.8,25.1,99.9,29.4z"/>
			</g>
			<g>
				<path class="st3" d="M16.6,3.2c0,0-0.5-0.2-0.8-0.3c-4.1-1.4-6.7-0.1-8,0.8C7.6,3.7,7.5,3.7,7.4,3.8c-1.8,1.2-3.3,3-4.1,5
					s-1,4.3-0.2,6.4c0.5,1.4,1.6,2.7,3.1,3.1c0.9,0.2,2-0.1,2.2-1c0.2-0.8-0.6-1.5-1.1-2.2c-0.9-1.2-1.2-2.8-0.9-4.2s0.8-2.8,1.8-4
					c0.9-1.1,2.1-2,3.5-2.3c0,0,0.1,0,0.2,0c0.3,0,0.8-0.1,1.5,0c2.3,0.4,3.8,2.7,4.5,5.5c0,0.2,0,0.4,0.1,0.5
					c0.2,1.5,0.3,3.2,0.2,4.4c-0.1,1.7-0.3,2.7-0.6,3.9c-0.1,0.4-0.2,0.7-0.3,1c-0.2,0.4-0.4,0.8-0.7,1.1c-0.1,0.1-0.2,0.2-0.4,0.4
					c-0.5,0.4-1.4,0.5-2,0.6c0-4.1-0.5-8.4-0.2-11.5c0-0.5,0.6-1.7,0.4-2.3c0,0,0-0.1,0-0.1c-0.1-0.4-0.3-0.8-0.7-1
					c-1-0.7-2.4-0.5-3.1,0.4c-0.1,0.1-0.2,0.3-0.2,0.4C10,8.3,9.9,8.8,9.9,9.2c-0.2,4.2-0.2,8.3,0,12.5c0.1,1.9,0.1,3.7,0.1,5.6
					c0,1.2,0,2.3,0,3.4c0,1-0.1,2.3-0.7,3.2c0-0.1-0.1-0.2-0.2-0.2c-0.4-0.4-1-0.8-1.6-0.9c-1.1-0.2-2.3,0.5-2.4,1.8
					c-0.1,3,4.3,3.1,6.3,3.2c1.3,0,2.6,0,3.9-0.3c1.5-0.3,3.2-1.1,4.2-2.3c1.1-1.2,1.7-2.8,2.1-4.4c0.3-1.5,0.3-3.2-0.1-4.8
					c-0.4-1.5-1.3-2.9-2.7-3.7C24.6,16.2,22.2,5.7,16.6,3.2z M15.8,35.2c-1.2,0.9-2.6,0.9-4,0.5c-0.1,0-0.8-0.4-1-0.5c0,0,0,0,0,0
					c2.2-1.6,2.9-6.3,3.2-11.6c0,0,1.6-0.3,2.4-0.1c1.5,0.4,1.9,2.3,1.9,3.8C18.3,30,18.1,33.5,15.8,35.2z"/>
				<path class="st3" d="M127.7,33.1c-0.1-0.6-0.7-1-1.3-0.9c-0.5,0.1-0.9,0.5-0.9,0.9c-0.1,0.5,0.2,0.9,0.6,1.2l0,0l0,0
					c0,0-0.3,0.7-0.6,0.9c-1.5,1.2-2.4-0.3-1.4-4.8c0.8-3.6,2.2-10.5,2.4-11.5c0,0,0-0.1,0-0.1s0-0.1,0-0.1c0-0.4-0.3-0.7-0.6-0.7
					c-0.2,0-0.4,0.1-0.4,0.2c0,0,0,0,0,0c-0.6,0.3-1.4,0.4-2.2,0.4c0,0,0,0,0,0c-0.4,0-0.7,0-1.1-0.1c-0.2-0.1-0.5-0.2-0.4-0.4
					c0.1-0.4,0-0.6,0-1.1c-0.1-0.5-0.2-1-0.7-1.3c0,0,0,0,0,0c-0.3-0.3-0.8-0.5-1.3-0.5c-1,0-1.7,1-1.7,1.9c0.1,1.1,0.6,2.1,1.4,2.6
					c0.1,0.1,0.1,0.1,0.1,0.1c-0.4,2.5-1.2,4.4-2.1,6.7l0,0c-1.2,2.4-2.8,7.1-5.6,7.1c-1,0-1.7-2.5-1.8-3.7
					c3.5-1.9,6.6-6.4,6.9-10.5c0.3-2-0.8-4.4-2.9-4.6c-4.3-0.3-6.4,7.3-7.2,10.8c-0.1,0.3-0.1,0.7-0.2,1c-1,2.1-2.1,3.6-3.7,5.4
					c1.2-5.6,3-13.5,3.1-15c0.1-1.5-1.3-2.3-2.4-1c0.1-1.4-1.1-1.5-1.6-1.5c-4.4-0.4-6.5,7.7-7.3,10.8c-0.2,1-0.3,1.8-0.3,3.7h0
					c-0.4,1.9-2.2,4.1-3.1,4.5c-0.1,0-0.1,0-0.1,0.1c-1.3,0.3-0.1-3,0-3.6c0.5-1.7,1-3.3,1.5-5c0.5-1.6,0.9-3.8,1.4-5.4
					c0.1-0.5,0.3-1.6,0.3-1.6c0-0.7-0.6-1.3-1.3-1.3c-0.3,0-0.6,0.1-0.8,0.3c0,0-2.9,1.5-3.2-0.3l0,0c0-0.1,0.1-0.3,0.1-0.5
					c0-0.5-0.2-1-0.6-1.3l0,0c-0.3-0.3-0.7-0.4-1.1-0.5c-1,0-1.8,0.9-1.8,1.9c0,0.5,0.2,1,0.4,1.4c0.1,0.1,0.1,0.3,0.2,0.5
					c0.1,0.2,0.2,0.4,0.4,0.6c0.1,0.1,0.2,0.2,0.2,0.3c0,0,0,0.1,0,0.1c-0.4,2-1.1,4.6-1.9,6.5c-0.5,1.3-0.9,2.6-1.5,3.8
					c-0.3,0.7-0.8,1.9-1.2,2.5c-0.1,0.1-0.3,0.4-0.6,0.7c-0.1,0.4-0.5,0.6-0.9,0.6c-0.3-0.1-0.6-0.3-0.7-0.6c-0.1-0.2,0-0.4,0.1-0.5
					c0,0,0-0.1,0-0.2c0.3-1.3,0.8-3.1,1.1-4.4c0.4-1.9,0.9-3.8,1.3-5.6c0.4-1.8,1.1-4.2,1.3-6.1c0.2-1.9-3.7-1.9-3.8,0.2
					c-0.1,2.5-1.6,8.1-2.8,14.4c-0.1,0.2-0.1,0.5-0.2,0.7c0,0.2-0.1,0.4-0.1,0.7c-0.1,0.2-0.1,0.4-0.2,0.6c-0.1,0.2-0.1,0.3-0.2,0.4
					c-0.3,0.4-0.7,0.7-1.3,0.7c-0.9,0-1.6-0.7-1.7-1.5c0,0,0-0.1,0-0.1c0,0,0,0,0,0c0,0,0,0,0,0c0-0.1,0-0.2,0-0.2c0,0,0,0,0-0.1
					c0,0,0,0,0-0.1c1-5.2,2.2-12.3,2.8-15s-3.9-2.5-3.9-0.2c0,2.4-0.2,4.2-0.8,7c0,0.1-0.1,0.3-0.1,0.5c-0.1,0.4-0.2,0.9-0.3,1.4
					c-0.2,0.6-0.4,1.3-0.6,1.9c-0.7,1.4-1.8,3-3.2,3.7c0,0,0-0.1,0.1-0.1c0.2-0.3,0.4-0.8,0.7-1.6c0.8-2.4,1.4-6.2,0.8-9.9
					c0,0,0-0.1,0-0.1c-0.2-0.9-0.7-1.8-1.4-2.4c-0.5-0.4-1.1-0.7-1.7-0.6c-0.7,0.1-1.8,1-2.4,1.6c0.8-4.1,2.2-9.1,2.3-11.6
					c0.2-2.8-3.8-2.3-3.8,0.1c0.2,7.9-2.5,13.7-3.4,19.6c0,0.2-0.1,0.4-0.1,0.5c-1,2.4-3.3,7-6.5,7c-1,0-1.5-1.1-1.6-2.6
					c4-2.7,6.6-6.6,7.2-11.2c0.2-2-1-4.6-3.6-5c-4.6-0.6-6.2,6.6-6.8,10.1C46.7,26,46.6,29,46.5,30c-0.3,0.9-0.9,1.7-1.4,2.3
					c0,0-2.8,2.3-2.1-1.8l0,0c0.8-4.7,2.2-10.7,2.1-12.6v0c0-0.1,0-0.1,0-0.2c0-0.1,0-0.2-0.1-0.2c-0.1-0.2-0.2-0.3-0.3-0.3
					c-0.2-0.2-0.5-0.3-0.8-0.3c-0.4,0-0.7,0.2-0.9,0.5c-0.1,0-0.2,0.1-0.4,0.1c0,0-2.1,0.6-2.5-1.1c0,0,0-0.2,0-0.2
					c-0.1-0.3-0.3-0.6-0.5-0.9c-0.2-0.2-0.4-0.3-0.7-0.4c-0.3-0.1-0.7-0.1-1.1,0c-0.8,0.2-1.3,0.8-1.4,1.6c-0.1,0.5,0.1,1,0.4,1.4
					c0.2,0.4,0.6,0.5,1,0.8c0.3,0.3,0.4,0.7,0.3,1.2c-0.3,2.4-0.6,3.4-1.4,6l0,0c0,0,0,0,0,0c-0.6,1.8-2.4,5.8-2.4,5.8
					c-1.6,1.9-1.9,0.1-1.9-0.6c1.5-11.1,2.9-13.3,2.3-15.2c-0.5-1.6-2.5-1.3-3.4,0.1c0-0.3-0.2-0.5-0.5-0.7
					c-0.6-0.5-1.4-0.6-2.2-0.4c-3.8,1.1-4.8,6.8-5.3,9.8C23,27.3,21.8,37.5,26,37.6c1.1,0,2.6-0.8,3.3-2.2c0.3,1.5,1.5,2.4,2.5,2.2
					c4.2-0.8,5-7.2,6.1-10.3l0,0c0.9-3.1,1.6-6.1,1.7-6.7c0,0,0,0,0,0c0,0,0,0,0,0c0,0,0,0,0,0c0.1-0.4,0.5-0.7,0.9-0.7
					c0.5,0,1,0.4,1,1c0,0.1,0,0.2-0.1,0.3c-0.3,1.2-1.8,7.8-1.9,12.4c-0.1,1.6,0.7,4,2.6,4.1c2.3,0.1,3.9-1.8,4.7-4
					c0.4,2.3,1.6,4.2,4,4.1c3.2-0.1,5.7-3,7.1-5.8c0.1,2.6,0.8,5.9,3.8,5.8c1.9-0.1,3.1-1.8,4-3.2c1.6,0,3.3-1.1,4.2-2.4
					c0,0.4-0.1,0.8-0.1,1.2c-0.1,1.4,1.3,4.2,3.3,4.3c1.2,0.1,3-1,4.1-2.3v0c0,0.1,0,0.1,0,0.2c0,1.1,0.9,2,2,2.1c0.1,0,0.1,0,0.2,0
					h0c0,0,0,0,0,0c0.1,0,0.2,0,0.3,0c2.5-0.3,3.5-3,4.4-5.1c1-2.3,1.7-4.7,2.7-7c0.5-1.3,1.1-3.2,1.6-4.6c0.1-0.2,0.1-0.5,0.3-0.6
					c0.2-0.2,0.6-0.3,0.9-0.3c0.4,0.1,0.6,0.4,0.7,0.7c0,0.2,0,0.3,0,0.5c-0.1,0.4-0.2,1-0.3,1.3c-0.2,0.5-0.3,1-0.5,1.4
					c-0.5,1.5-1,2.9-1.4,4.4c-0.5,1.6-0.9,3.2-1.1,4.8c-0.2,1.2-0.3,2.4,0.5,3.5c0.8,1.1,2.5,1.2,3.6,0.6c1.2-0.7,2.4-3,3.2-4.2
					c0.2-0.3,0.4-0.7,0.6-1c0.4,1.5,0.9,2.9,2.3,3c0.7,0,1.6-0.7,2.1-1.3c-0.1,0.6-0.4,2.1-0.4,2.1c-2.8,2.4-5.2,3.6-5.4,7.4
					c-0.1,2,0.9,2.9,2.1,2.8c4.6-0.2,6-7.3,6.8-10.6c1.7-1.5,2.9-2.9,4.1-4.9c0.2,2.5,1.4,6.5,4.2,6.5c4.2,0,6.3-5.6,7.8-9.1h0
					c1-2.5,2.4-7,2.5-7.5c0.1-0.7,1.7-0.6,1.5,0.2c0,0.1,0,0.2-0.1,0.4l0,0.1c-1.6,5.7-2.2,9.3-2.3,11.7c0,0.2,0,0.4,0,0.5
					c0,2.4,0.6,3.3,1.4,3.7c0.3,0.2,0.8,0.3,1.2,0.4c0.7,0.1,1.5-0.1,2.1-0.4c0.2-0.1,0.4-0.2,0.6-0.3c1-0.7,2-1.8,2.4-2.8
					C127.8,33.9,127.8,33.5,127.7,33.1L127.7,33.1z M110.7,22.7c0.5-1.5,1.1-3,1.6-3.8c0-0.1,0.1-0.2,0.2-0.3
					c0.4-0.5,1.1-0.6,1.6-0.2c0.3,0.2,0.4,0.5,0.4,0.8c0,1.3-1,5.8-4.5,8.9C110.2,26.2,110.3,24.4,110.7,22.7z M30.4,18.7
					c0,0.1,0,0.2,0,0.3c-0.1,0.8-0.3,1.7-0.4,2.5c-0.2,1.3-0.1,1-0.3,2.3c-0.4,2.5-0.8,5.4-1,7.9c-0.1,0.5-0.5,1.6-1.3,1.5l0,0
					c-1.1,0-1.4-2.6-1.1-5.6c0-0.4,0.1-0.8,0.1-1.2c0.4-2.9,1.2-5.9,2.1-7.4c0.2-0.2,0.4-0.4,0.6-0.5c0.2-0.1,0.4-0.3,0.7-0.3
					c0,0,0,0,0.1,0C30.3,18.2,30.5,18.4,30.4,18.7z M50,27.8C50,27.8,50,27.8,50,27.8C50,27.7,50,27.7,50,27.8
					C50,27.7,50,27.8,50,27.8z M53.7,17.8C53.7,17.8,53.7,17.9,53.7,17.8c0.2,0.1,0.5,0.6,0.5,1.2c-0.1,3.1-2,6-4,8.5
					C49.8,26,50.7,18.4,53.7,17.8z M61.9,34.2c-0.9-0.3-0.8-2.8-0.7-4.2c0.1,1.4,1.1,2.8,1.7,3.2C62.7,33.6,62.1,34.3,61.9,34.2z
					 M65.2,22c-0.1,3-0.2,5.4-1.2,8.3c-1.3-1.2-1.8-3-1.7-4.7c0-0.6,0.1-1.1,0.2-1.7c0.3-1.6,0.8-4,2.2-4.2
					C65,19.6,65.2,20.6,65.2,22z M95.8,43.5c-0.5,0.1-0.5-0.4-0.5-0.7c0.2-1.8,1.4-3.4,2.9-4.7C97.7,39.9,97.4,42.4,95.8,43.5z
					 M99.9,29.4c-0.2,0.8-0.5,1.4-1,1.4c0,0-0.1,0-0.1,0c-1.7-0.3-0.7-5.2-0.3-6.7c0-0.1,0-0.1,0-0.2c0.1-0.2,0.1-0.5,0.1-0.7
					c0.1-0.3,0.1-0.5,0.2-0.8c0.1-0.3,0.1-0.6,0.2-0.9c0.1-0.3,0.2-0.6,0.3-0.9c0.1-0.3,0.4-1,0.5-1.3c0.1-0.3,0.3-0.5,0.4-0.8
					c0.2-0.4,0.5-0.7,0.9-0.9c0.1,0,0.1-0.1,0.2-0.1c0.2-0.1,0.6-0.3,0.9-0.1c0.1,0,0.1,0.1,0.1,0.2
					C102.3,17.8,100.8,25.1,99.9,29.4z"/>
			</g>
		</g>
	</g>
</g>
<g>
	<g>
		<path class="st4" d="M16.6,3.2c0,0-0.5-0.2-0.8-0.3c-4.1-1.4-6.7-0.1-8,0.8C7.6,3.7,7.5,3.8,7.4,3.9c-1.8,1.2-3.3,3-4.1,5
			s-1,4.3-0.2,6.4c0.5,1.4,1.6,2.7,3.1,3.1c0.9,0.2,2-0.1,2.2-1c0.2-0.8-0.6-1.5-1.1-2.2C6.3,14,6,12.4,6.3,10.9s0.8-2.8,1.8-4
			c0.9-1.1,2.1-2,3.5-2.3c0,0,0.1,0,0.2,0c0.3,0,0.8-0.1,1.5,0c2.3,0.4,3.8,2.7,4.5,5.5c0,0.2,0,0.4,0.1,0.5
			c0.2,1.5,0.3,3.2,0.2,4.4c-0.1,1.7-0.3,2.7-0.6,3.9c-0.1,0.4-0.2,0.7-0.3,1c-0.2,0.4-0.4,0.8-0.7,1.1c-0.1,0.1-0.2,0.2-0.4,0.4
			c-0.5,0.4-1.4,0.5-2,0.6c0-4.1-0.5-8.4-0.2-11.5c0-0.5,0.6-1.7,0.4-2.3c0,0,0-0.1,0-0.1c-0.1-0.4-0.3-0.8-0.7-1
			c-1-0.7-2.4-0.5-3.1,0.4c-0.1,0.1-0.2,0.3-0.2,0.4C9.9,8.4,9.9,8.9,9.8,9.3c-0.2,4.2-0.2,8.3,0,12.5c0.1,1.9,0.1,3.7,0.1,5.6
			c0,1.2,0,2.3,0,3.4c0,1-0.1,2.3-0.7,3.2c0-0.1-0.1-0.2-0.2-0.2c-0.4-0.4-1-0.8-1.6-0.9c-1.1-0.2-2.3,0.5-2.4,1.8
			c-0.1,3,4.3,3.1,6.3,3.2c1.3,0,2.6,0,3.9-0.3c1.5-0.3,3.2-1.1,4.2-2.3c1.1-1.2,1.7-2.8,2.1-4.4c0.3-1.5,0.3-3.2-0.1-4.8
			c-0.4-1.5-1.3-2.9-2.7-3.7C24.5,16.3,22.2,5.8,16.6,3.2z M15.7,35.3c-1.2,0.9-2.6,0.9-4,0.5c-0.1,0-0.8-0.4-1-0.5c0,0,0,0,0,0
			c2.2-1.6,2.9-6.3,3.2-11.6c0,0,1.6-0.3,2.4-0.1c1.5,0.4,1.9,2.3,1.9,3.8C18.3,30.1,18.1,33.5,15.7,35.3z"/>
		<path class="st4" d="M127.7,33.2c-0.1-0.6-0.7-1-1.3-0.9c-0.5,0.1-0.9,0.5-0.9,0.9c-0.1,0.5,0.2,0.9,0.6,1.2c0,0-0.3,0.7-0.6,0.9
			c-1.5,1.2-2.4-0.3-1.4-4.8c0.8-3.6,2.2-10.5,2.4-11.5c0,0,0-0.1,0-0.1s0-0.1,0-0.1c0-0.4-0.3-0.7-0.6-0.7c-0.2,0-0.4,0.1-0.4,0.2
			c0,0,0,0,0,0c-0.6,0.3-1.4,0.4-2.2,0.4c0,0,0,0,0,0c-0.4,0-0.7,0-1.1-0.1c-0.2-0.1-0.5-0.2-0.4-0.4c0.1-0.4,0-0.6,0-1.1
			c-0.1-0.5-0.2-1-0.7-1.3c-0.3-0.3-0.8-0.5-1.3-0.5c-1,0-1.7,1-1.7,1.9c0.1,1.1,0.6,2.1,1.4,2.6c0.1,0.1,0.1,0.1,0.1,0.1
			c-0.4,2.5-1.2,4.4-2.1,6.7c-1.2,2.4-2.8,7.1-5.6,7.1c-1,0-1.7-2.5-1.8-3.7c3.5-1.9,6.6-6.4,6.9-10.5c0.3-2-0.8-4.4-2.9-4.6
			c-4.3-0.3-6.4,7.3-7.2,10.8c-0.1,0.3-0.1,0.7-0.2,1c-1,2.1-2.1,3.6-3.7,5.4c1.2-5.6,3-13.5,3.1-15c0.1-1.5-1.3-2.3-2.4-1
			c0.1-1.4-1.1-1.5-1.6-1.5c-4.4-0.4-6.5,7.7-7.3,10.8c-0.2,1-0.3,1.8-0.3,3.7c-0.4,1.9-2.2,4.1-3.1,4.5c-0.1,0-0.1,0-0.1,0.1
			c-1.3,0.3-0.1-3,0-3.6c0.5-1.7,1-3.3,1.5-5c0.5-1.6,0.9-3.8,1.4-5.4c0.1-0.5,0.3-1.6,0.3-1.6c0-0.7-0.6-1.3-1.3-1.3
			c-0.3,0-0.6,0.1-0.8,0.3c0,0-2.9,1.5-3.2-0.3c0-0.1,0.1-0.3,0.1-0.5c0-0.5-0.2-1-0.6-1.3c-0.3-0.3-0.7-0.4-1.1-0.5
			c-1,0-1.8,0.9-1.8,1.9c0,0.5,0.2,1,0.4,1.4c0.1,0.1,0.1,0.3,0.2,0.5c0.1,0.2,0.2,0.4,0.4,0.6c0.1,0.1,0.2,0.2,0.2,0.3
			c0,0,0,0.1,0,0.1c-0.4,2-1.1,4.6-1.9,6.5c-0.5,1.3-0.9,2.6-1.5,3.8c-0.3,0.7-0.8,1.9-1.2,2.5c-0.1,0.1-0.3,0.4-0.6,0.7
			c-0.1,0.4-0.5,0.6-0.9,0.6c-0.3-0.1-0.6-0.3-0.7-0.6c-0.1-0.2,0-0.4,0.1-0.5c0,0,0-0.1,0-0.2c0.3-1.3,0.8-3.1,1.1-4.4
			c0.4-1.9,0.9-3.8,1.3-5.6c0.4-1.8,1.1-4.2,1.3-6.1c0.2-1.9-3.7-1.9-3.8,0.2c-0.1,2.5-1.6,8.1-2.8,14.4c-0.1,0.2-0.1,0.5-0.2,0.7
			c0,0.2-0.1,0.4-0.1,0.7c-0.1,0.2-0.1,0.4-0.2,0.6c-0.1,0.2-0.1,0.3-0.2,0.4C76,33.7,75.6,34,75.1,34c-0.9,0-1.6-0.7-1.7-1.5
			c0,0,0-0.1,0-0.1c0,0,0,0,0,0c0,0,0,0,0,0c0-0.1,0-0.2,0-0.2c0,0,0,0,0-0.1c0,0,0,0,0-0.1c1-5.2,2.2-12.3,2.8-15s-3.9-2.5-3.9-0.2
			c0,2.4-0.2,4.2-0.8,7c0,0.1-0.1,0.3-0.1,0.5c-0.1,0.4-0.2,0.9-0.3,1.4c-0.2,0.6-0.4,1.3-0.6,1.9c-0.7,1.4-1.8,3-3.2,3.7
			c0,0,0-0.1,0.1-0.1c0.2-0.3,0.4-0.8,0.7-1.6c0.8-2.4,1.4-6.2,0.8-9.9c0,0,0-0.1,0-0.1c-0.2-0.9-0.7-1.8-1.4-2.4
			c-0.5-0.4-1.1-0.7-1.7-0.6c-0.7,0.1-1.8,1-2.4,1.6c0.8-4.1,2.2-9.1,2.3-11.6c0.2-2.8-3.8-2.3-3.8,0.1c0.2,7.9-2.5,13.7-3.4,19.6
			c0,0.2-0.1,0.4-0.1,0.5c-1,2.4-3.3,7-6.5,7c-1,0-1.5-1.1-1.6-2.6c4-2.7,6.6-6.6,7.2-11.2c0.2-2-1-4.6-3.6-5
			c-4.6-0.6-6.2,6.6-6.8,10.1C46.7,26,46.6,29,46.5,30c-0.3,0.9-0.9,1.7-1.4,2.3c0,0-2.8,2.3-2.1-1.8c0.8-4.7,2.2-10.7,2.1-12.6
			c0-0.1,0-0.1,0-0.2c0-0.1,0-0.2-0.1-0.2c-0.1-0.2-0.2-0.3-0.3-0.3c-0.2-0.2-0.5-0.3-0.8-0.3c-0.4,0-0.7,0.2-0.9,0.5
			c-0.1,0-0.2,0.1-0.4,0.1c0,0-2.1,0.6-2.5-1.1c0,0,0-0.2,0-0.2c-0.1-0.3-0.3-0.6-0.5-0.9c-0.2-0.2-0.4-0.3-0.7-0.4
			c-0.3-0.1-0.7-0.1-1.1,0c-0.8,0.2-1.3,0.8-1.4,1.6c-0.1,0.5,0.1,1,0.4,1.4c0.2,0.4,0.6,0.5,1,0.8c0.3,0.3,0.4,0.7,0.3,1.2
			c-0.3,2.4-0.6,3.4-1.4,6c0,0,0,0,0,0c-0.3,1.1-0.8,2.1-1.2,3.1c-0.4,1-0.8,2.8-1.9,3.4c-0.9,0.5-1.2-0.5-1.2-1.2
			c1.5-11.1,2.9-13.3,2.3-15.2c-0.5-1.6-2.5-1.3-3.4,0.1c0-0.3-0.2-0.5-0.5-0.7c-0.6-0.5-1.4-0.6-2.2-0.4c-3.8,1.1-4.8,6.8-5.3,9.8
			C23,27.4,21.7,37.6,26,37.7c1.1,0,2.6-0.8,3.3-2.2c0.3,1.5,1.5,2.4,2.5,2.2c4.2-0.8,5-7.2,6.1-10.3c0.9-3.1,1.6-6.1,1.7-6.7
			c0,0,0,0,0,0c0,0,0,0,0,0c0.1-0.4,0.5-0.7,0.9-0.7c0.5,0,1,0.4,1,1c0,0.1,0,0.2-0.1,0.3c-0.3,1.2-1.8,7.8-1.9,12.4
			c-0.1,1.6,0.7,4,2.6,4.1c2.3,0.1,3.9-1.8,4.7-4c0.4,2.3,1.6,4.2,4,4.1c3.2-0.1,5.7-3,7.1-5.8c0.1,2.6,0.8,5.9,3.8,5.8
			c1.9-0.1,3.1-1.8,4-3.2c1.6,0,3.3-1.1,4.2-2.4c0,0.4-0.1,0.8-0.1,1.2c-0.1,1.4,1.3,4.2,3.3,4.3c1.2,0.1,3-1,4.1-2.2
			c0,0.1,0,0.1,0,0.2c0,1.1,0.9,2,2,2.1c0.1,0,0.1,0,0.2,0c0,0,0,0,0,0c0.1,0,0.2,0,0.3,0c2.5-0.3,3.5-3,4.4-5.1
			c1-2.3,1.7-4.7,2.7-7c0.5-1.3,1.1-3.2,1.6-4.6c0.1-0.2,0.1-0.5,0.3-0.6c0.2-0.2,0.6-0.3,0.9-0.3c0.4,0.1,0.6,0.4,0.7,0.7
			c0,0.2,0,0.3,0,0.5c-0.1,0.4-0.2,1-0.3,1.3c-0.2,0.5-0.3,1-0.5,1.4c-0.5,1.5-1,2.9-1.4,4.4c-0.5,1.6-0.9,3.2-1.1,4.8
			c-0.2,1.2-0.3,2.4,0.5,3.5c0.8,1.1,2.5,1.2,3.6,0.6c1.2-0.7,2.4-3,3.2-4.2c0.2-0.3,0.4-0.7,0.6-1c0.4,1.5,0.9,2.9,2.3,3
			c0.7,0,1.6-0.7,2.1-1.3c-0.1,0.6-0.4,2.1-0.4,2.1c-2.8,2.4-5.2,3.6-5.4,7.4c-0.1,2,0.9,2.9,2.1,2.8c4.6-0.2,6-7.3,6.8-10.6
			c1.7-1.5,2.9-2.9,4.1-4.9c0.2,2.5,1.4,6.5,4.2,6.5c4.2,0,6.3-5.6,7.8-9.1c1-2.5,2.4-7,2.5-7.5c0.1-0.7,1.7-0.6,1.5,0.2
			c0,0.1,0,0.2-0.1,0.4l0,0.1c-1.6,5.7-2.2,9.3-2.3,11.7c0,0.2,0,0.4,0,0.5c0,2.4,0.6,3.3,1.4,3.7c0.3,0.2,0.8,0.3,1.2,0.4
			c0.7,0.1,1.5-0.1,2.1-0.4c0.2-0.1,0.4-0.2,0.6-0.3c1-0.7,2-1.8,2.4-2.8C127.7,34,127.8,33.6,127.7,33.2z M110.7,22.7
			c0.5-1.5,1.1-3,1.6-3.8c0-0.1,0.1-0.2,0.2-0.3c0.4-0.5,1.1-0.6,1.6-0.2c0.3,0.2,0.4,0.5,0.4,0.8c0,1.3-1,5.8-4.5,8.9
			C110.2,26.2,110.2,24.5,110.7,22.7z M30.4,18.7c0,0.1,0,0.2,0,0.3c-0.1,0.8-0.3,1.7-0.4,2.5c-0.2,1.3-0.1,1-0.3,2.3
			c-0.4,2.5-0.8,5.4-1,7.9c-0.1,0.5-0.5,1.6-1.3,1.5l0,0c-1.1,0-1.4-2.6-1.1-5.6c0-0.4,0.1-0.8,0.1-1.2c0.4-2.9,1.2-5.9,2.1-7.4
			c0.2-0.2,0.4-0.4,0.6-0.5c0.2-0.1,0.4-0.3,0.7-0.3c0,0,0,0,0.1,0C30.2,18.3,30.4,18.4,30.4,18.7z M50,27.8
			C50,27.8,50,27.8,50,27.8C50,27.8,50,27.8,50,27.8C50,27.8,50,27.8,50,27.8z M53.7,17.9C53.7,17.9,53.7,17.9,53.7,17.9
			c0.2,0.1,0.5,0.6,0.5,1.2c-0.1,3.1-2,6-4,8.5C49.7,26.1,50.7,18.5,53.7,17.9z M61.9,34.3c-0.9-0.3-0.8-2.8-0.7-4.2
			c0.1,1.4,1.1,2.8,1.7,3.2C62.7,33.6,62.1,34.4,61.9,34.3z M65.1,22.1c-0.1,3-0.2,5.4-1.2,8.3c-1.3-1.2-1.8-3-1.7-4.7
			c0-0.6,0.1-1.1,0.2-1.7c0.3-1.6,0.8-4,2.2-4.2C65,19.6,65.2,20.7,65.1,22.1z M95.7,43.5c-0.5,0.1-0.5-0.4-0.5-0.7
			c0.2-1.8,1.4-3.4,2.9-4.7C97.7,39.9,97.4,42.4,95.7,43.5z M99.9,29.5c-0.2,0.8-0.5,1.4-1,1.4c0,0-0.1,0-0.1,0
			c-1.7-0.3-0.7-5.2-0.3-6.7c0-0.1,0-0.1,0-0.2c0.1-0.2,0.1-0.5,0.1-0.7c0.1-0.3,0.1-0.5,0.2-0.8c0.1-0.3,0.1-0.6,0.2-0.9
			c0.1-0.3,0.2-0.6,0.3-0.9c0.1-0.3,0.4-1,0.5-1.3c0.1-0.3,0.3-0.5,0.4-0.8c0.2-0.4,0.5-0.7,0.9-0.9c0.1,0,0.1-0.1,0.2-0.1
			c0.2-0.1,0.6-0.3,0.9-0.1c0.1,0,0.1,0.1,0.1,0.2C102.3,17.9,100.8,25.2,99.9,29.5z"/>
	</g>
	<g>
		<path class="st0" d="M16.6,3.2c0,0-0.5-0.2-0.8-0.3c-4.1-1.4-6.7-0.1-8,0.8C7.6,3.7,7.5,3.8,7.4,3.9c-1.8,1.2-3.3,3-4.1,5
			s-1,4.3-0.2,6.4c0.5,1.4,1.6,2.7,3.1,3.1c0.9,0.2,2-0.1,2.2-1c0.2-0.8-0.6-1.5-1.1-2.2C6.3,14,6,12.4,6.3,10.9s0.8-2.8,1.8-4
			c0.9-1.1,2.1-2,3.5-2.3c0,0,0.1,0,0.2,0c0.3,0,0.8-0.1,1.5,0c2.3,0.4,3.8,2.7,4.5,5.5c0,0.2,0,0.4,0.1,0.5
			c0.2,1.5,0.3,3.2,0.2,4.4c-0.1,1.7-0.3,2.7-0.6,3.9c-0.1,0.4-0.2,0.7-0.3,1c-0.2,0.4-0.4,0.8-0.7,1.1c-0.1,0.1-0.2,0.2-0.4,0.4
			c-0.5,0.4-1.4,0.5-2,0.6c0-4.1-0.5-8.4-0.2-11.5c0-0.5,0.6-1.7,0.4-2.3c0,0,0-0.1,0-0.1c-0.1-0.4-0.3-0.8-0.7-1
			c-1-0.7-2.4-0.5-3.1,0.4c-0.1,0.1-0.2,0.3-0.2,0.4C9.9,8.4,9.9,8.9,9.8,9.3c-0.2,4.2-0.2,8.3,0,12.5c0.1,1.9,0.1,3.7,0.1,5.6
			c0,1.2,0,2.3,0,3.4c0,1-0.1,2.3-0.7,3.2c0-0.1-0.1-0.2-0.2-0.2c-0.4-0.4-1-0.8-1.6-0.9c-1.1-0.2-2.3,0.5-2.4,1.8
			c-0.1,3,4.3,3.1,6.3,3.2c1.3,0,2.6,0,3.9-0.3c1.5-0.3,3.2-1.1,4.2-2.3c1.1-1.2,1.7-2.8,2.1-4.4c0.3-1.5,0.3-3.2-0.1-4.8
			c-0.4-1.5-1.3-2.9-2.7-3.7C24.5,16.3,22.2,5.8,16.6,3.2z M15.7,35.3c-1.2,0.9-2.6,0.9-4,0.5c-0.1,0-0.8-0.4-1-0.5c0,0,0,0,0,0
			c2.2-1.6,2.9-6.3,3.2-11.6c0,0,1.6-0.3,2.4-0.1c1.5,0.4,1.9,2.3,1.9,3.8C18.3,30.1,18.1,33.5,15.7,35.3z"/>
		<path class="st0" d="M127.7,33.2c-0.1-0.6-0.7-1-1.3-0.9c-0.5,0.1-0.9,0.5-0.9,0.9c-0.1,0.5,0.2,0.9,0.6,1.2c0,0-0.3,0.7-0.6,0.9
			c-1.5,1.2-2.4-0.3-1.4-4.8c0.8-3.6,2.2-10.5,2.4-11.5c0,0,0-0.1,0-0.1s0-0.1,0-0.1c0-0.4-0.3-0.7-0.6-0.7c-0.2,0-0.4,0.1-0.4,0.2
			c0,0,0,0,0,0c-0.6,0.3-1.4,0.4-2.2,0.4c0,0,0,0,0,0c-0.4,0-0.7,0-1.1-0.1c-0.2-0.1-0.5-0.2-0.4-0.4c0.1-0.4,0-0.6,0-1.1
			c-0.1-0.5-0.2-1-0.7-1.3c-0.3-0.3-0.8-0.5-1.3-0.5c-1,0-1.7,1-1.7,1.9c0.1,1.1,0.6,2.1,1.4,2.6c0.1,0.1,0.1,0.1,0.1,0.1
			c-0.4,2.5-1.2,4.4-2.1,6.7c-1.2,2.4-2.8,7.1-5.6,7.1c-1,0-1.7-2.5-1.8-3.7c3.5-1.9,6.6-6.4,6.9-10.5c0.3-2-0.8-4.4-2.9-4.6
			c-4.3-0.3-6.4,7.3-7.2,10.8c-0.1,0.3-0.1,0.7-0.2,1c-1,2.1-2.1,3.6-3.7,5.4c1.2-5.6,3-13.5,3.1-15c0.1-1.5-1.3-2.3-2.4-1
			c0.1-1.4-1.1-1.5-1.6-1.5c-4.4-0.4-6.5,7.7-7.3,10.8c-0.2,1-0.3,1.8-0.3,3.7c-0.4,1.9-2.2,4.1-3.1,4.5c-0.1,0-0.1,0-0.1,0.1
			c-1.3,0.3-0.1-3,0-3.6c0.5-1.7,1-3.3,1.5-5c0.5-1.6,0.9-3.8,1.4-5.4c0.1-0.5,0.3-1.6,0.3-1.6c0-0.7-0.6-1.3-1.3-1.3
			c-0.3,0-0.6,0.1-0.8,0.3c0,0-2.9,1.5-3.2-0.3c0-0.1,0.1-0.3,0.1-0.5c0-0.5-0.2-1-0.6-1.3c-0.3-0.3-0.7-0.4-1.1-0.5
			c-1,0-1.8,0.9-1.8,1.9c0,0.5,0.2,1,0.4,1.4c0.1,0.1,0.1,0.3,0.2,0.5c0.1,0.2,0.2,0.4,0.4,0.6c0.1,0.1,0.2,0.2,0.2,0.3
			c0,0,0,0.1,0,0.1c-0.4,2-1.1,4.6-1.9,6.5c-0.5,1.3-0.9,2.6-1.5,3.8c-0.3,0.7-0.8,1.9-1.2,2.5c-0.1,0.1-0.3,0.4-0.6,0.7
			c-0.1,0.4-0.5,0.6-0.9,0.6c-0.3-0.1-0.6-0.3-0.7-0.6c-0.1-0.2,0-0.4,0.1-0.5c0,0,0-0.1,0-0.2c0.3-1.3,0.8-3.1,1.1-4.4
			c0.4-1.9,0.9-3.8,1.3-5.6c0.4-1.8,1.1-4.2,1.3-6.1c0.2-1.9-3.7-1.9-3.8,0.2c-0.1,2.5-1.6,8.1-2.8,14.4c-0.1,0.2-0.1,0.5-0.2,0.7
			c0,0.2-0.1,0.4-0.1,0.7c-0.1,0.2-0.1,0.4-0.2,0.6c-0.1,0.2-0.1,0.3-0.2,0.4C76,33.7,75.6,34,75.1,34c-0.9,0-1.6-0.7-1.7-1.5
			c0,0,0-0.1,0-0.1c0,0,0,0,0,0c0,0,0,0,0,0c0-0.1,0-0.2,0-0.2c0,0,0,0,0-0.1c0,0,0,0,0-0.1c1-5.2,2.2-12.3,2.8-15s-3.9-2.5-3.9-0.2
			c0,2.4-0.2,4.2-0.8,7c0,0.1-0.1,0.3-0.1,0.5c-0.1,0.4-0.2,0.9-0.3,1.4c-0.2,0.6-0.4,1.3-0.6,1.9c-0.7,1.4-1.8,3-3.2,3.7
			c0,0,0-0.1,0.1-0.1c0.2-0.3,0.4-0.8,0.7-1.6c0.8-2.4,1.4-6.2,0.8-9.9c0,0,0-0.1,0-0.1c-0.2-0.9-0.7-1.8-1.4-2.4
			c-0.5-0.4-1.1-0.7-1.7-0.6c-0.7,0.1-1.8,1-2.4,1.6c0.8-4.1,2.2-9.1,2.3-11.6c0.2-2.8-3.8-2.3-3.8,0.1c0.2,7.9-2.5,13.7-3.4,19.6
			c0,0.2-0.1,0.4-0.1,0.5c-1,2.4-3.3,7-6.5,7c-1,0-1.5-1.1-1.6-2.6c4-2.7,6.6-6.6,7.2-11.2c0.2-2-1-4.6-3.6-5
			c-4.6-0.6-6.2,6.6-6.8,10.1C46.7,26,46.6,29,46.5,30c-0.3,0.9-0.9,1.7-1.4,2.3c0,0-2.8,2.3-2.1-1.8c0.8-4.7,2.2-10.7,2.1-12.6
			c0-0.1,0-0.1,0-0.2c0-0.1,0-0.2-0.1-0.2c-0.1-0.2-0.2-0.3-0.3-0.3c-0.2-0.2-0.5-0.3-0.8-0.3c-0.4,0-0.7,0.2-0.9,0.5
			c-0.1,0-0.2,0.1-0.4,0.1c0,0-2.1,0.6-2.5-1.1c0,0,0-0.2,0-0.2c-0.1-0.3-0.3-0.6-0.5-0.9c-0.2-0.2-0.4-0.3-0.7-0.4
			c-0.3-0.1-0.7-0.1-1.1,0c-0.8,0.2-1.3,0.8-1.4,1.6c-0.1,0.5,0.1,1,0.4,1.4c0.2,0.4,0.6,0.5,1,0.8c0.3,0.3,0.4,0.7,0.3,1.2
			c-0.3,2.4-0.6,3.4-1.4,6c0,0,0,0,0,0c-0.3,1.1-0.8,2.1-1.2,3.1c-0.4,1-0.8,2.8-1.9,3.4c-0.9,0.5-1.2-0.5-1.2-1.2
			c1.5-11.1,2.9-13.3,2.3-15.2c-0.5-1.6-2.5-1.3-3.4,0.1c0-0.3-0.2-0.5-0.5-0.7c-0.6-0.5-1.4-0.6-2.2-0.4c-3.8,1.1-4.8,6.8-5.3,9.8
			C23,27.4,21.7,37.6,26,37.7c1.1,0,2.6-0.8,3.3-2.2c0.3,1.5,1.5,2.4,2.5,2.2c4.2-0.8,5-7.2,6.1-10.3c0.9-3.1,1.6-6.1,1.7-6.7
			c0,0,0,0,0,0c0,0,0,0,0,0c0.1-0.4,0.5-0.7,0.9-0.7c0.5,0,1,0.4,1,1c0,0.1,0,0.2-0.1,0.3c-0.3,1.2-1.8,7.8-1.9,12.4
			c-0.1,1.6,0.7,4,2.6,4.1c2.3,0.1,3.9-1.8,4.7-4c0.4,2.3,1.6,4.2,4,4.1c3.2-0.1,5.7-3,7.1-5.8c0.1,2.6,0.8,5.9,3.8,5.8
			c1.9-0.1,3.1-1.8,4-3.2c1.6,0,3.3-1.1,4.2-2.4c0,0.4-0.1,0.8-0.1,1.2c-0.1,1.4,1.3,4.2,3.3,4.3c1.2,0.1,3-1,4.1-2.2
			c0,0.1,0,0.1,0,0.2c0,1.1,0.9,2,2,2.1c0.1,0,0.1,0,0.2,0c0,0,0,0,0,0c0.1,0,0.2,0,0.3,0c2.5-0.3,3.5-3,4.4-5.1
			c1-2.3,1.7-4.7,2.7-7c0.5-1.3,1.1-3.2,1.6-4.6c0.1-0.2,0.1-0.5,0.3-0.6c0.2-0.2,0.6-0.3,0.9-0.3c0.4,0.1,0.6,0.4,0.7,0.7
			c0,0.2,0,0.3,0,0.5c-0.1,0.4-0.2,1-0.3,1.3c-0.2,0.5-0.3,1-0.5,1.4c-0.5,1.5-1,2.9-1.4,4.4c-0.5,1.6-0.9,3.2-1.1,4.8
			c-0.2,1.2-0.3,2.4,0.5,3.5c0.8,1.1,2.5,1.2,3.6,0.6c1.2-0.7,2.4-3,3.2-4.2c0.2-0.3,0.4-0.7,0.6-1c0.4,1.5,0.9,2.9,2.3,3
			c0.7,0,1.6-0.7,2.1-1.3c-0.1,0.6-0.4,2.1-0.4,2.1c-2.8,2.4-5.2,3.6-5.4,7.4c-0.1,2,0.9,2.9,2.1,2.8c4.6-0.2,6-7.3,6.8-10.6
			c1.7-1.5,2.9-2.9,4.1-4.9c0.2,2.5,1.4,6.5,4.2,6.5c4.2,0,6.3-5.6,7.8-9.1c1-2.5,2.4-7,2.5-7.5c0.1-0.7,1.7-0.6,1.5,0.2
			c0,0.1,0,0.2-0.1,0.4l0,0.1c-1.6,5.7-2.2,9.3-2.3,11.7c0,0.2,0,0.4,0,0.5c0,2.4,0.6,3.3,1.4,3.7c0.3,0.2,0.8,0.3,1.2,0.4
			c0.7,0.1,1.5-0.1,2.1-0.4c0.2-0.1,0.4-0.2,0.6-0.3c1-0.7,2-1.8,2.4-2.8C127.7,34,127.8,33.6,127.7,33.2z M110.7,22.7
			c0.5-1.5,1.1-3,1.6-3.8c0-0.1,0.1-0.2,0.2-0.3c0.4-0.5,1.1-0.6,1.6-0.2c0.3,0.2,0.4,0.5,0.4,0.8c0,1.3-1,5.8-4.5,8.9
			C110.2,26.2,110.2,24.5,110.7,22.7z M30.4,18.7c0,0.1,0,0.2,0,0.3c-0.1,0.8-0.3,1.7-0.4,2.5c-0.2,1.3-0.1,1-0.3,2.3
			c-0.4,2.5-0.8,5.4-1,7.9c-0.1,0.5-0.5,1.6-1.3,1.5l0,0c-1.1,0-1.4-2.6-1.1-5.6c0-0.4,0.1-0.8,0.1-1.2c0.4-2.9,1.2-5.9,2.1-7.4
			c0.2-0.2,0.4-0.4,0.6-0.5c0.2-0.1,0.4-0.3,0.7-0.3c0,0,0,0,0.1,0C30.2,18.3,30.4,18.4,30.4,18.7z M50,27.8
			C50,27.8,50,27.8,50,27.8C50,27.8,50,27.8,50,27.8C50,27.8,50,27.8,50,27.8z M53.7,17.9C53.7,17.9,53.7,17.9,53.7,17.9
			c0.2,0.1,0.5,0.6,0.5,1.2c-0.1,3.1-2,6-4,8.5C49.7,26.1,50.7,18.5,53.7,17.9z M61.9,34.3c-0.9-0.3-0.8-2.8-0.7-4.2
			c0.1,1.4,1.1,2.8,1.7,3.2C62.7,33.6,62.1,34.4,61.9,34.3z M65.1,22.1c-0.1,3-0.2,5.4-1.2,8.3c-1.3-1.2-1.8-3-1.7-4.7
			c0-0.6,0.1-1.1,0.2-1.7c0.3-1.6,0.8-4,2.2-4.2C65,19.6,65.2,20.7,65.1,22.1z M95.7,43.5c-0.5,0.1-0.5-0.4-0.5-0.7
			c0.2-1.8,1.4-3.4,2.9-4.7C97.7,39.9,97.4,42.4,95.7,43.5z M99.9,29.5c-0.2,0.8-0.5,1.4-1,1.4c0,0-0.1,0-0.1,0
			c-1.7-0.3-0.7-5.2-0.3-6.7c0-0.1,0-0.1,0-0.2c0.1-0.2,0.1-0.5,0.1-0.7c0.1-0.3,0.1-0.5,0.2-0.8c0.1-0.3,0.1-0.6,0.2-0.9
			c0.1-0.3,0.2-0.6,0.3-0.9c0.1-0.3,0.4-1,0.5-1.3c0.1-0.3,0.3-0.5,0.4-0.8c0.2-0.4,0.5-0.7,0.9-0.9c0.1,0,0.1-0.1,0.2-0.1
			c0.2-0.1,0.6-0.3,0.9-0.1c0.1,0,0.1,0.1,0.1,0.2C102.3,17.9,100.8,25.2,99.9,29.5z"/>
	</g>
</g>
<polygon points="15.2,25.4 13.2,35 15.4,34.4 17.4,29.1 16.9,25.6 "/>
<polygon points="21.8,20.6 20.5,22.2 22.1,23.1 22.6,20.9 "/>
<polygon points="111.5,30.9 112.4,32.4 113.8,30.9 113.8,29.2 "/>
<polygon class="st5" points="16.1,9.7 16.8,15.6 15.7,18.8 15.3,16.4 14.9,11.3 "/>
</svg>
